<?xml version="1.0" encoding="utf-8"?>
<!DOCTYPE svg PUBLIC "-//W3C//DTD SVG 1.0//EN" "http://www.w3.org/TR/2001/REC-SVG-20010904/DTD/svg10.dtd">
<svg version="1.0" xmlns="http://www.w3.org/2000/svg" width="2550px" height="3300px" viewBox="0 0 2550 3300" preserveAspectRatio="xMidYMid meet">
 <g fill="#000000">
  <path d="M1465.5 2356 c-18.1 -0.4 -37.9 -1.3 -44 -1.9 -90.1 -9.6 -177.4 -50.6 -253.1 -119.2 -60.8 -55.1 -112.5 -125 -152.4 -206.4 -49.1 -100.2 -77.8 -208.5 -87.5 -330.5 -2.2 -26.6 -3.1 -96 -1.6 -122.5 6.3 -115 31 -218.5 74.6 -312.5 41.3 -89.1 98 -163.4 166 -217.4 12.4 -9.9 43.3 -30.7 57.1 -38.5 45.1 -25.4 97.2 -42.5 148.9 -48.7 28.3 -3.4 165.4 -2.7 199.2 1.1 67 7.4 132.9 35.3 193.3 81.9 48.3 37.3 96.6 92.1 134.8 153.3 15.8 25.2 40.5 73.1 53.1 102.8 41.9 98.7 66.8 208.2 74.1 325.5 0.6 9.1 1.3 32.5 1.7 52 3.1 177.8 -39.8 344.4 -122 473.5 -48.2 75.9 -111 134.9 -180.4 169.7 -43.2 21.7 -82.7 32.8 -130.8 36.8 -17.4 1.4 -90 2 -131 1z m29.1 -20.5 c67.4 -6.5 131.1 -30.7 189.6 -72.3 12.2 -8.7 34 -26.4 44.4 -36.1 l6.3 -6 -2 -7.8 c-1.3 -4.8 -2.3 -12.5 -2.6 -20.1 l-0.6 -12.3 -2.6 2.4 c-1.4 1.4 -6.4 5.1 -11.1 8.3 -21.6 14.6 -56.7 27 -99 34.8 -24.3 4.5 -67.5 8.6 -89.9 8.6 -12.9 0 -14.1 -0.8 -14.1 -9.5 0 -9 0.3 -9.1 22 -9.9 52.6 -2 103.9 -11.7 140.4 -26.5 31.1 -12.6 51.1 -30.4 54.8 -48.5 1.1 -5.5 1 -5.8 -2.7 -13.4 -2.9 -5.8 -5.9 -9.7 -11.9 -15.7 -10.2 -10.1 -17.8 -15.4 -49.9 -34.8 -14.2 -8.6 -30.8 -19.1 -37 -23.4 -13.7 -9.6 -27.4 -22.5 -32.8 -30.9 l-4.1 -6.3 -6.2 4.3 c-7.3 5.2 -19.4 11.4 -29.4 15 -16.4 5.9 -43.6 11.3 -67.7 13.6 -14.3 1.3 -62.3 1.3 -75.6 0 -42.5 -4.3 -74.6 -13.3 -93.8 -26.4 -3 -2 -5.5 -3.5 -5.6 -3.4 -0.1 0.2 -1.3 2.3 -2.5 4.8 -8.4 16.7 -21.4 27 -72.5 57.5 -26.4 15.7 -41.4 28.1 -49.7 40.9 -6.8 10.5 -7.2 15.9 -2 27.1 5.9 12.5 22 26.3 41.7 35.6 5 2.3 9.8 4.9 10.8 5.7 2.3 2 2.3 10.8 0.1 14.1 -1.5 2.1 -2.3 2.3 -8.3 1.9 -5.4 -0.3 -8.3 -1.2 -16.1 -5 -10.9 -5.4 -19.6 -10.9 -26.2 -16.7 l-4.5 -4 -0.6 10.2 c-0.3 5.6 -1.3 13.5 -2.2 17.5 -2 8.8 -3.1 7.1 14 21.7 74.1 63 158.8 99.7 244.5 105.8 12.9 1 40.5 0.5 54.6 -0.8z m108.9 -0.5 c12.2 -1.4 28.3 -4.4 44.5 -8.5 94.8 -23.8 184.1 -95.2 247.4 -197.9 58.1 -94.2 94.3 -203.1 109.1 -328.1 5 -42.3 5.9 -59.8 5.9 -110 0.1 -45.9 -0.5 -59.8 -4 -97.5 -9.2 -99.9 -33.3 -197.3 -70.6 -285.5 -8.6 -20.3 -30.2 -63.4 -41.4 -82.5 -78.9 -134.7 -186 -220.4 -303.6 -242.9 -17.5 -3.4 -46.9 -6.5 -40.8 -4.4 108.9 37.6 208.1 123 282 242.8 65.5 105.9 107.9 238.4 120.4 375.5 13.6 148.7 -5.1 289.4 -55.1 415.5 -39.4 99 -100.2 186.9 -170.7 246.4 -40.1 33.9 -79.9 57.1 -126.1 73.7 -13 4.6 -12.5 5.1 3 3.4z m172.7 -158 c39.5 -47.1 77.4 -111.7 103 -175.5 42.7 -106.6 63.1 -230.2 57.8 -350.5 -6.8 -155.3 -48.5 -298 -122.3 -418.5 -25.6 -41.9 -55.3 -79.9 -89.7 -114.9 -45.8 -46.5 -86.2 -76.4 -137.5 -101.6 -58.9 -28.9 -117.7 -42.4 -177.9 -40.7 -69.6 2 -137.4 24.3 -200.1 66 -40.5 26.9 -80.6 64.6 -114.6 107.7 -9.2 11.6 -29.1 40.4 -38.6 56 -59 96.2 -96 211.8 -107.7 337 -3.1 32.3 -3.9 55.1 -3.3 94.5 0.6 39.8 1.2 51.3 4.8 85.5 18.8 182.4 90.3 348.5 200.1 465.3 9.6 10.2 12.3 12.6 13 11.3 1.8 -3.2 2 -17.1 0.4 -27.5 -2.3 -14.9 -2.1 -33.8 0.4 -43.5 6 -23.6 19 -37 58.8 -61.1 29.9 -18.1 44.6 -27.5 51.8 -33.1 10.9 -8.5 18.1 -17.6 21.8 -27.4 1.5 -4 1.5 -4.9 0.2 -8.6 -2.2 -6.3 -2.9 -16.1 -1.6 -23.9 0.8 -4.9 3.7 -12.9 9.7 -26.5 31.4 -71.7 46.7 -133.7 49.9 -203.5 l0.6 -14 -9.8 -2.3 c-37.4 -8.8 -61.2 -23.9 -65.4 -41.3 -2.1 -8.5 -0.9 -19.7 2.8 -27.2 3.9 -8 13.5 -18.4 26.2 -28.7 16.9 -13.7 24 -23.4 24 -33 0 -5.9 -4 -14.1 -11.9 -24.9 -26.1 -34.9 -37 -73.1 -34.1 -118.2 1.4 -19.8 4 -31.5 11.7 -52.3 l4.4 -11.9 -3.4 -3.6 c-10.4 -10.9 -13.4 -21.8 -23.3 -84.1 -6 -38.4 -10.1 -56.1 -16.4 -72.4 -4.6 -11.7 -8.5 -17.8 -13 -20.1 -4.9 -2.5 -10.9 -8.5 -13.2 -12.9 -2.6 -5.1 -3.5 -16.3 -1.8 -22.6 1.7 -6.4 8.8 -13.3 15.9 -15.4 6.4 -1.9 16.7 -2.1 22.2 -0.5 5.2 1.6 10.8 6.4 13 11.3 1.4 3 1.9 6.5 1.9 13.2 0 8.7 0.2 9.6 4 17 6.6 13 31.9 46.4 37.4 49.4 2.4 1.2 2.8 1.2 4.1 -0.6 0.8 -1 1.9 -4.1 2.5 -6.9 1.3 -5.3 2.9 -37.7 2.9 -58.7 0.1 -12.6 0.1 -12.8 -2.8 -16 -5.9 -6.8 -7.6 -11.5 -7.6 -21.3 0 -11.7 2.6 -17.4 10 -22 4.1 -2.5 6.1 -3.1 12.7 -3.4 4.5 -0.2 9.9 0.2 12.4 0.9 5.8 1.7 11.7 7.4 13.8 13.5 1.8 5.5 2.1 18 0.5 23.8 -0.9 3.5 -0.7 4.4 3.2 11.5 5.2 9.6 22.4 36.4 29.1 45.4 5.9 8 16.2 17.8 18.7 17.8 4.5 0 10.8 -8.2 16 -21 1.7 -4.1 7.4 -19.6 12.7 -34.3 l9.6 -26.8 -2.8 -6.2 c-2.4 -5.3 -2.8 -7.5 -2.8 -15.2 -0.1 -8.2 0.2 -9.5 2.9 -14.5 2.2 -3.9 4.4 -6.3 7.9 -8.5 4.8 -2.9 5.3 -3 17 -3 11.6 0 12.3 0.1 16.2 2.8 2.4 1.6 5.3 4.9 7 8 2.6 4.7 2.8 6.1 2.8 14.7 0 7.9 -0.4 10.6 -2.7 15.9 l-2.6 6.4 3.5 13.6 c2 7.5 5.1 18.3 7 24.1 3.6 10.8 11 27 12.4 27 1.2 0 7 -14.3 14.9 -36.8 3.9 -10.8 8.1 -22.5 9.5 -25.9 2.2 -5.6 2.4 -7.3 1.9 -15.6 -0.7 -10.8 0.4 -15.2 5 -20.4 4.7 -5.4 9.7 -7.3 19.4 -7.3 11.6 0 19.4 3.8 24.1 11.9 2.4 4 2.7 5.7 2.7 13.1 0 9.6 -1.1 12.5 -7.6 19.5 -3.7 4.1 -4.1 5 -6.9 19.1 -3.8 18.5 -7 43 -7 53.5 0 4.4 1.8 24.2 4 44 2.2 19.8 4 38.8 4 42.2 -0.1 13.8 -3.5 27.8 -8.5 34.3 l-2.6 3.5 4.6 5.1 c11.5 12.8 24.4 35.8 30.9 54.8 6.9 20.6 8 28.4 8 56.5 0 27.9 -1.1 35.7 -8 56.4 -5.8 17.5 -11.8 28.3 -30 54.7 -4.3 6.1 -6.8 14.5 -6 19.6 1.6 9.8 8.9 19.3 25.6 32.8 22 17.9 29.9 30.9 28.8 47.4 -0.9 13 -6.2 21.5 -19.1 30 -13.9 9.2 -33.8 16.4 -60 21.7 l-11.9 2.4 0.7 10.5 c4.8 77.1 17.6 129.5 49.8 203 4.7 10.7 9 21.3 9.6 23.6 0.6 2.2 1 9.2 0.8 15.5 -0.2 11.5 -0.2 11.5 3.5 18.9 8.4 16.8 25.9 31.2 70.3 57.5 34.8 20.6 48 30.2 57.4 41.6 5.6 6.9 10.7 17.6 12.6 26.4 1.7 8 1.9 24.4 0.4 35.5 -1.8 14.5 -2.2 27.3 -0.9 33.5 l1.3 6 8.5 -9 c4.6 -4.9 12.1 -13.3 16.4 -18.5z m-278.7 -148.4 c40.2 -5.8 67.1 -16 81.7 -30.8 5.5 -5.6 9.3 -14.4 8.2 -19.2 -0.3 -1.7 -4 -10.7 -8.1 -20.1 -32.5 -73.4 -46.9 -131.2 -51.3 -205.9 -0.5 -9.3 -1.1 -17.1 -1.4 -17.3 -0.2 -0.2 -4.1 0.1 -8.7 0.6 -35 4.4 -96.1 3.7 -132.8 -1.4 -5.8 -0.8 -10.5 -1.5 -10.6 -1.5 -0.1 0 -0.5 6 -0.9 13.3 -2.8 54.4 -11.1 100.5 -26.6 148.2 -6.5 19.8 -19.4 52.8 -27.5 70 -5.8 12.4 -6.5 17.3 -3.5 24.2 8.3 19.3 44.2 34.6 95.5 40.7 16.4 2 70.4 1.5 86 -0.8z m-6.5 -309.6 c62.5 -3.6 110 -17.3 123.1 -35.3 1.6 -2.2 2.9 -5.3 2.9 -6.9 0 -7.5 -8.1 -17.9 -24 -30.8 -17.2 -14 -27.3 -27.3 -28.7 -38.1 -0.7 -4.9 -1.4 -5.4 -4.7 -2.8 -1.4 1.1 -6.4 4.5 -11.2 7.4 -7.4 4.7 -9.4 5.5 -13.4 5.5 -7.4 0 -9.2 -2 -8.8 -10 l0.3 -6.5 6.5 -4.2 c12.9 -8.3 21.4 -15 30.4 -24 28.5 -28.6 44.6 -66.7 44.6 -106 0 -48.5 -25.3 -95.7 -66.9 -124.5 l-7.4 -5.1 -22.1 0.7 c-58.4 1.8 -110.9 8.8 -152.2 20.3 l-9.5 2.6 -7.6 9.1 c-21.3 25.3 -32.6 52.1 -36.3 85.4 -1.9 17.4 1.3 40.5 8.3 60.7 11.7 33.4 35.8 62.4 67.2 81 4.4 2.7 8.6 5.5 9.3 6.3 2.1 2.7 1.5 11.2 -1 13.9 -4.7 5 -13.3 2.5 -29.8 -8.6 l-7.4 -5.1 -1.6 5.8 c-3.5 12.5 -11.8 23.5 -26.5 35 -14.2 11.2 -22.1 20.1 -25 28.1 -1.2 3.6 -1.2 4.3 0.7 8 13 26.2 99.1 43.4 190.8 38.1z m-164.5 -370.9 c34.7 -13.3 85.9 -22.5 150.5 -27.2 9.1 -0.7 34 -1.3 55.3 -1.3 l38.9 -0.1 1.9 -2.4 c1 -1.3 1.9 -3.1 1.9 -4 0 -0.9 -1.8 -18.1 -4.1 -38.1 -3.7 -33.2 -4 -38 -3.5 -53.5 0.6 -18 2.9 -36.4 7.6 -58.6 3.3 -15.9 4.9 -19.8 9.6 -23.4 4.5 -3.4 4.2 -6.3 -0.8 -9 l-3.8 -2 -2.2 2.3 c-2.1 2.1 -2.3 3 -2 12.1 0.4 8.8 0.1 10.6 -2.6 18.2 -1.7 4.6 -6.5 18.1 -10.7 29.9 -11.7 32.8 -16.4 41.8 -23.7 45.6 -3.5 1.8 -14.1 1.8 -17.7 0 -9.7 -5.1 -19.7 -26.9 -29.1 -63.7 -5.4 -21.2 -5.7 -27.8 -1.3 -36.7 3.4 -6.9 3.3 -9.2 -0.5 -12.2 -3.3 -2.7 -6.4 -2.5 -9.6 0.5 -3.2 3 -3.2 4.4 -0.1 12 1.9 4.7 2.5 7.8 2.5 14.3 0 7.7 -0.4 9.5 -6.4 26 -3.6 9.7 -8.8 24.2 -11.6 32.2 -8.7 24.2 -15.4 35.2 -24.7 40.7 -4.3 2.5 -5.8 2.8 -13.3 2.8 -11.3 0 -16 -2.3 -26.6 -13 -10.4 -10.4 -36.4 -49.3 -43.1 -64.3 -2.6 -6 -3.1 -17 -1.2 -24.8 1 -4 0.9 -4.9 -0.8 -7.1 -3.6 -4.9 -5.1 -5.2 -8.4 -1.5 -2.7 3 -2.8 3.4 -1.5 6 0.8 1.5 2.4 3.6 3.6 4.7 4.8 4.2 5 6.2 5 42.7 0 48.6 -1.7 59.9 -10.4 69.5 l-4.4 4.8 -8.5 0.3 c-7.8 0.4 -9 0.2 -13.7 -2.4 -6.9 -3.7 -14.4 -11.4 -25.2 -25.9 -10.8 -14.3 -11.3 -14.9 -9.8 -11 3.2 8.5 8.4 33.8 13.4 66 6.4 40.3 8.1 49.6 11.2 59.3 0.2 0.9 2 0.4 6.2 -1.7 3.1 -1.6 9.3 -4.3 13.7 -6z m-62.1 -169.2 c-0.9 -1 -2.5 -2.1 -3.5 -2.4 -2.1 -0.7 -6.6 1.4 -9.3 4.4 -1.9 2.1 -1.9 2.2 0.1 4.9 1.1 1.5 4.7 4.5 7.9 6.7 l5.9 4.1 0.3 -7.9 c0.2 -6.3 -0.1 -8.3 -1.4 -9.8z"/>
  <path d="M1755.7 1969.4 c-0.4 -0.4 -0.7 -2.8 -0.7 -5.3 l0 -4.6 47.3 -47.3 47.4 -47.3 4.9 0.3 4.9 0.3 0.3 5 0.3 5 -47.1 47 -47 47 -4.8 0.3 c-2.6 0.2 -5.1 0 -5.5 -0.4z"/>
  <path d="M1695.3 1966.3 c-0.8 -0.3 -1.3 -2.4 -1.3 -5.6 l0 -5.2 81.3 -81.3 81.2 -81.2 4.6 0 c5.4 0 6.9 1.3 6.9 5.9 0 3.4 -4.3 7.8 -82.2 85.8 -78.5 78.5 -82.4 82.3 -85.8 82.2 -1.9 0 -4.1 -0.3 -4.7 -0.6z"/>
  <path d="M1523.6 1921.3 c-7.9 -24.3 -15.6 -56.2 -15.6 -64.6 0 -2.4 0.5 -4.8 1.2 -5.5 1.3 -1.3 7.6 -1.6 9.5 -0.4 0.7 0.4 2.6 7.5 4.3 15.6 3.1 14.7 9.5 38.1 14.5 52.5 1.4 4.1 2.5 8.7 2.5 10.2 0 5.2 -0.8 5.9 -6.6 5.9 l-5.3 0 -4.5 -13.7z"/>
  <path d="M1361.7 1562 c-16.9 -13.5 -33.2 -38.6 -32.5 -49.8 l0.3 -4.7 5.2 -0.3 5.2 -0.3 4.7 9.3 c2.5 5.1 6.5 12 8.9 15.3 4.3 6.1 18.9 20.8 23.9 24 2.4 1.6 2.7 2.3 2.4 6.9 l-0.3 5.1 -5.1 0.3 c-5 0.3 -5.4 0.1 -12.7 -5.8z"/>
  <path d="M1322.3 1313.9 c-1.4 -1.4 -1.7 -7.7 -0.5 -9.6 1.1 -1.8 10.3 -4.9 24.2 -8.3 24.9 -6 63.1 -10 65.1 -6.9 1.3 2.1 1.1 8.5 -0.3 9.7 -0.7 0.6 -8 1.8 -16.3 2.7 -17.5 1.9 -40.2 6.3 -53 10.1 -10.7 3.3 -17.5 4.1 -19.2 2.3z"/>
  <path d="M728.5 2338 c-81 -3.5 -145.1 -17.2 -174.4 -37.3 -7.1 -4.8 -14.6 -13 -17.5 -19.1 -1.5 -3.2 -3.1 -9 -3.7 -13.6 -1.5 -11 0 -18.8 5.7 -30.1 9.2 -18.3 11 -28.3 8.5 -45.4 -2.4 -15.7 -0.6 -31.1 4.6 -40.7 6.3 -11.6 18.2 -21.6 45.9 -38.9 33.1 -20.5 40.7 -26.6 45.3 -36.3 2 -4 2.1 -5 1.1 -8.2 -0.8 -2.3 -1.1 -7.2 -0.8 -13.3 0.5 -9.2 0.7 -10.2 7.3 -25.1 16.1 -36.8 25.3 -66.3 30.9 -99 2.4 -14.3 5.6 -43.3 5.6 -51.6 l0 -4.2 -7.2 -1.7 c-17.3 -4.2 -31.9 -11 -39.3 -18.2 -7 -7 -8.5 -10.6 -8.5 -21 0 -14.6 1.4 -16.6 28.3 -41.8 13.4 -12.6 13.7 -17 1.8 -32.8 -17.6 -23.6 -26 -51.7 -24.8 -83.7 0.7 -20.9 4.3 -35.3 13.1 -52.8 15.7 -31 44.8 -54.6 78.6 -63.6 28.9 -7.8 63.9 -4.9 89.4 7.2 14.6 7 24.6 14.1 35.7 25.1 24.8 24.8 36.2 53.6 36.1 91.1 0 29.4 -6.3 49.5 -23.7 75 -8 11.8 -9.4 15.9 -7.5 22.2 1.2 4.3 6 9.4 23.3 25.1 11.6 10.6 15.2 17.5 15.2 29.2 -0.1 13.6 -5.7 21.2 -21.4 29.3 -8.7 4.6 -22.8 9.3 -35.4 11.9 l-8.7 1.8 0 6.3 c0 8.5 2.6 33.2 5 47.2 4.6 27.1 13.4 56.6 25.5 85.5 15 35.6 13.8 31.9 14.5 44.6 0.5 9.3 1.1 12.3 2.8 15 4.9 7.9 16.4 16.5 44.1 33 47.9 28.6 57.1 39.7 57.1 69.4 0 6 -0.5 15.3 -1.1 20.5 -1.1 8.7 -1 10.2 0.9 17.9 1.2 4.6 4.4 13 7.2 18.7 6.1 12.4 7.4 18.1 6.8 29.3 -0.9 15.4 -6.8 25.3 -21.4 35.7 -24.5 17.5 -79.9 31 -146.9 35.8 -26.6 1.9 -73.4 2.7 -98 1.6z m89 -26.5 c86.5 -6.6 143.5 -23.7 154.9 -46.6 1.4 -2.9 2.6 -6 2.6 -6.8 0 -0.8 -2.4 -6.7 -5.4 -13 -5.9 -12.6 -8.1 -20 -9.2 -30.2 l-0.6 -6.6 -5.2 3.5 c-12.8 8.7 -35.5 17.6 -57.8 22.6 -24.1 5.4 -65.5 10.1 -83 9.4 -10.6 -0.4 -11.8 -1.3 -11.8 -9.5 0 -8.5 0.7 -8.9 19.6 -9.6 50.3 -2 96.3 -13.4 120.4 -29.7 10.3 -7 18.2 -17.6 18.2 -24.6 0 -1.8 -1.3 -5.6 -2.8 -8.4 -5.2 -9.6 -15.4 -17.4 -50.5 -38.6 -27.3 -16.5 -35.7 -23 -43.6 -33.9 l-2.2 -3 -2.8 1.8 c-6.4 4.1 -19.6 9.7 -29.8 12.6 -20.8 5.8 -40 8.1 -69 8.1 -39.1 0 -67.6 -5 -89.6 -15.8 l-9.7 -4.7 -2.2 3.8 c-5.6 9.8 -13.4 16.2 -41.3 33.4 -32.5 20.1 -43.3 28.8 -47.7 38.5 -2.5 5.6 -2.5 7.2 0.4 13.4 4.3 9.2 16.1 19.1 31 25.9 4 1.8 7.6 4.1 8 5 0.3 0.9 0.6 3.7 0.6 6.3 0 6.3 -2.7 9.2 -8.8 9.2 -5.2 0 -20.3 -6.7 -28.3 -12.6 l-4.9 -3.6 0 5.8 c0 8.4 -2.5 17.3 -8.6 30.6 -3 6.4 -5.4 12.9 -5.4 14.3 0 5.8 6.3 14.2 15.2 20.3 24.9 17.1 81.2 29 157.8 33.5 17.3 1 74.5 0.5 91.5 -0.8z m-39.2 -222 c27.8 -1.8 56.2 -9.7 68.5 -19.1 5 -3.9 9.2 -10.2 9.2 -14 0 -1.8 -2.3 -8.2 -5 -14.4 -16.2 -35.7 -27.8 -72.7 -33 -105 -2.3 -14.7 -5 -41.6 -5 -50.7 0 -3.4 -0.3 -6.3 -0.7 -6.3 -0.5 0 -5.1 0.5 -10.3 1.1 -5.2 0.5 -21.6 1 -36.5 1 -24.1 0 -34 -0.5 -53.6 -2.7 l-5.6 -0.6 -0.7 10.8 c-3.5 54.1 -14.8 100.9 -35.7 147.7 -8.2 18.2 -8.2 18.2 -6.1 23.1 6.9 15.3 38.8 27 81.2 29.5 12.2 0.8 17.1 0.7 33.3 -0.4z m6.2 -226.5 c45.4 -2.6 77.3 -10.8 89.5 -23 2.2 -2.2 4 -4.8 4 -5.8 0 -3.4 -7.8 -12.8 -15.7 -18.9 -4.3 -3.3 -10 -8.4 -12.6 -11.2 -4.4 -4.7 -9.7 -13.9 -9.7 -16.8 0 -1.9 -0.4 -1.7 -7.7 2.7 -5.5 3.3 -7.6 4 -11.9 4 -4.5 0 -5.6 -0.4 -7.3 -2.6 -2.1 -2.6 -2.8 -8.4 -1.5 -11.9 0.4 -0.9 4.5 -4.2 9.3 -7.3 27.3 -18 44.9 -45.4 49.7 -77.4 3.3 -22.4 -3 -48.9 -16.8 -70 -18.2 -27.9 -47.1 -45.8 -80.5 -50 -16.6 -2.1 -35.5 1.5 -54 10.2 -12.8 6 -21.7 12.3 -31.4 22.1 -13.5 13.6 -23.4 30.8 -28.6 49.8 -3.4 12.4 -3.8 32.9 -0.9 45.6 6.3 27.8 23.9 53.4 47.1 68.6 5 3.2 10 6.6 11.3 7.4 1.9 1.4 2.2 2.5 2.2 7.5 0 5.1 -0.3 6.1 -2.6 7.9 -5.3 4.2 -11 2.8 -24.6 -6.3 -2.6 -1.7 -2.8 -1.7 -2.8 -0.1 0 0.9 -1.4 4.3 -3.1 7.6 -3 5.6 -6.7 9.5 -23.3 24.2 -6.3 5.7 -11.6 12.6 -11.6 15.2 0 1.7 9.1 10 13.4 12.2 20.2 10.2 48.1 15 99.6 17.1 1.9 0.1 11.2 -0.3 20.5 -0.8z"/>
  <path d="M859.2 2198.8 c-1.6 -1.6 -1.5 -8.3 0.2 -9.7 0.8 -0.6 5.4 -1.8 10.2 -2.6 12.8 -2.1 26.7 -6 35.9 -10.2 8.8 -3.9 15.7 -5.2 18 -3.3 1.6 1.3 2 7.7 0.7 9.6 -0.9 1.5 -9.6 5.9 -16.4 8.3 -18.8 6.9 -45.3 11.2 -48.6 7.9z"/>
  <path d="M837.3 1665.8 c-0.5 -0.7 -1.5 -3.3 -2.2 -5.8 -0.7 -2.5 -3.3 -8.4 -5.8 -13.3 -7.7 -15 -22.2 -28.4 -38.1 -35.3 l-6.3 -2.7 0.3 -5.1 0.3 -5.1 5.1 -0.3 c6 -0.3 11.3 1.7 21.6 8.4 9 5.8 17.9 14.2 23 21.7 10.2 15 16.5 33.6 12.6 37.5 -1.6 1.6 -9.3 1.5 -10.5 0z"/>
 </g>
 <g fill="#ffffff">
  <path d="M0 1650 l0 -1650 1275 0 1275 0 0 1650 0 1650 -1275 0 -1275 0 0 -1650z m1593.7 701.9 c47.9 -3.9 87.4 -15 130.6 -36.7 69.4 -34.8 132.2 -93.8 180.4 -169.7 54 -84.7 90.4 -183.7 109.2 -296 15.6 -93.4 17.1 -193.5 4.5 -294 -18 -143.1 -64.2 -273.6 -133.7 -378 -23.3 -34.9 -54.9 -72.7 -84.7 -101.1 -68.6 -65.4 -148.5 -104.9 -230.3 -113.9 -33.7 -3.8 -165 -4.5 -193.2 -1.1 -51.6 6.2 -103.7 23.3 -148.9 48.7 -13.8 7.8 -44.7 28.6 -57.1 38.5 -35.6 28.3 -68.1 62 -96.3 99.9 -78.8 105.7 -127.8 241.5 -141.6 392.5 -5.5 58.8 -4.5 129.7 2.4 191.5 21.3 187.7 96.3 357.6 209 472.9 44.1 45.2 89.4 78.8 140.6 104.4 44 22 92.1 36.2 139.9 41.3 25.5 2.7 139.8 3.3 169.2 0.8z m-770.2 -18.5 c66.8 -4.7 122.3 -18.3 146.9 -35.8 13.3 -9.5 20.1 -19.9 21.3 -32.7 0.8 -7.8 -1 -14.5 -6.7 -26.3 -7 -14.3 -9.4 -24.5 -8.6 -35.5 1.8 -24.1 1.8 -31.6 0.3 -37.8 -4.9 -19 -15.7 -29.3 -55.8 -53.2 -27.7 -16.5 -39.2 -25.1 -44.1 -33 -1.7 -2.7 -2.3 -5.7 -2.8 -15 -0.7 -12.7 0.5 -9 -14.5 -44.6 -19.1 -45.7 -27.5 -82.9 -30.9 -136.5 l-0.6 -8.5 9 -1.7 c19.3 -3.8 38.9 -11.7 47.9 -19.5 5.7 -4.8 9.4 -12.3 9.4 -19 0 -8.6 -4.6 -16.5 -15 -26 -19.2 -17.5 -22 -20.6 -23.8 -26.7 -2.5 -8.4 -0.9 -13.5 8.1 -26.8 16.6 -24.3 23.5 -45.6 23.6 -71.8 0 -34.5 -12.1 -64.1 -36.1 -88.1 -42.2 -42.2 -106.4 -48.5 -156.1 -15.5 -39.6 26.4 -60.4 72.8 -53.6 119.6 3.1 20.7 11.6 41.5 23.4 57.2 7 9.3 9.2 14 9.2 20.2 0 7.4 -3 12.6 -11.8 20.4 -22.1 19.5 -27.2 26.5 -27.2 37.5 0 7.1 2.2 11.7 8.5 18 7.4 7.2 22 14 39.3 18.2 l7.2 1.7 0 7.2 c0 10.9 -2.8 38.3 -5.6 54.6 -5.6 32.6 -14.7 61.8 -30.9 99 -7.8 17.9 -9.1 25.4 -6.1 33.5 1.6 4.1 1.6 4.9 0.2 9.2 -3.8 11.3 -13.2 19.5 -44.8 38.8 -38 23.3 -49.9 35.8 -53 55.6 -0.9 6.3 -0.8 10.1 0.6 22 2.4 21 0.9 29.5 -9.2 49.5 -4.9 9.8 -6.3 16.6 -5.1 25.2 3.3 23.1 25.5 39.3 70.9 51.5 55.1 14.9 138.1 20.6 216.5 15.1z"/>
  <path d="M1567 2340.1 c0 -0.6 0.1 -1.1 0.3 -1.1 1.1 0 37.1 -12.9 46.7 -16.7 22 -8.7 49 -23.2 70.5 -37.7 87.5 -59 163.1 -158.6 209.8 -276.1 53.9 -135.8 71.4 -287.7 51.1 -445.5 -14.4 -112.3 -49.6 -221.5 -101.1 -313.5 -61.8 -110.3 -148.2 -197.8 -242.3 -245.4 -22.3 -11.3 -39.8 -18.5 -66 -27.1 l-12.5 -4.1 17.5 0.5 c80.2 2.3 156.7 33 226.2 90.8 76.7 63.8 140.7 158.2 184.2 271.7 29.5 76.9 49.9 166.4 58 254.1 3.5 38.3 4.1 51.4 4 100.5 0 53.4 -0.9 70 -5.9 113 -10.1 85.4 -30.4 163.6 -61 235.6 -22.3 52.4 -54 106.7 -84.6 144.9 -73.4 91.7 -162.6 144.6 -260.4 154.4 -25 2.5 -34.5 3 -34.5 1.7z"/>
  <path d="M1437 2339.3 c-68 -4.8 -135.6 -29 -197.8 -70.5 -20.7 -13.8 -43.3 -31.5 -59.5 -46.5 l-4.7 -4.4 1.9 -6.3 c3 -9.9 4.5 -21.9 3.7 -31.9 l-0.6 -9 7.8 7.4 c9 8.7 17.2 14.3 29.9 20.5 11.6 5.7 16.4 6.6 18.7 3.3 2.1 -3 2 -6.2 -0.1 -8.1 -1 -0.8 -5.8 -3.4 -10.8 -5.7 -32.2 -15.2 -50 -38.6 -44.6 -58.7 3.9 -14.5 22.1 -31.5 54.6 -50.9 52.9 -31.6 64.9 -41.4 73.6 -59.9 l3 -6.4 6.5 4.9 c19.3 14.6 52.1 24.3 97.3 28.9 13.2 1.3 55.3 1.3 69.6 0 47.8 -4.5 84.5 -16.4 103.7 -33.8 2.1 -1.9 4 -3.3 4.1 -3.1 0.1 0.2 1.6 3.1 3.2 6.4 4.2 8.3 20.8 24.8 35.2 34.8 6.1 4.3 22.8 14.8 37 23.4 32.1 19.4 39.7 24.7 49.9 34.8 6 6 9 9.9 11.9 15.7 3.6 7.5 3.8 8.1 3.2 15 -1.7 20.3 -21.4 39.1 -55.3 52.9 -36.5 14.8 -87.8 24.5 -140.4 26.5 -19.9 0.7 -22 1.4 -22 6.9 0 6.8 3.7 7.4 33.2 5.5 83.9 -5.6 147.8 -24.9 177.9 -53.7 l6.6 -6.4 -0.5 11.8 c-0.5 12.6 1.1 24 4.7 34.5 l1.9 5.5 -10.2 9.1 c-70.5 63.4 -147.2 98.6 -232 106.7 -14.1 1.3 -47.2 1.8 -60.6 0.8z"/>
  <path d="M1747.7 2204.5 c-1.8 -8.2 -2.2 -25.6 -0.7 -34 0.5 -2.7 1.2 -10.6 1.5 -17.5 0.8 -14.9 -0.7 -23.6 -5.9 -34.5 -8.3 -17.3 -21 -27.9 -65.1 -54 -44.4 -26.3 -61.9 -40.6 -70.3 -57.4 -3.7 -7.5 -3.7 -7.5 -3.8 -21 -0.1 -15.4 0.4 -13.5 -10.9 -39.1 -31.4 -71 -45.4 -129.3 -49.1 -204 l-0.7 -13.5 11.9 -2.4 c26.3 -5.3 46.2 -12.5 60.1 -21.7 23.7 -15.7 25.2 -36.4 4.4 -58.7 -2.5 -2.7 -8.9 -8.5 -14.1 -12.7 -18.6 -15.1 -24.9 -24 -25.8 -36.1 -0.6 -8 1.6 -15.6 6.2 -22.3 18.2 -26.4 24.2 -37.2 30 -54.7 6.7 -20.1 8 -28.8 8 -53.4 0 -19.1 -0.3 -23.4 -2.2 -32.5 -6.2 -28.5 -19.8 -56.5 -37.6 -76.9 -3.1 -3.6 -5.6 -6.9 -5.6 -7.4 0 -0.5 1.4 -2.5 3.1 -4.5 5.3 -6 8.3 -15 9.4 -28.2 0.5 -5.6 -0.4 -16.8 -3.4 -43.7 -2.4 -20.7 -4.1 -40.9 -4.1 -47.2 0 -13.2 2.8 -36.3 7 -56.5 2.8 -14.1 3.2 -15 6.9 -19.1 5.7 -6.2 7.5 -10.1 7.5 -16.5 0.1 -12 -10.8 -22 -23.7 -22 -9.1 0.1 -16.8 5.1 -20.2 13.4 -1.3 3.2 -1.5 5.7 -1 13.1 l0.7 9.3 -5 13.3 c-2.8 7.4 -7.1 19.3 -9.5 26.4 -6.3 17.8 -11.4 30 -13.8 32.1 -1.8 1.6 -2 1.6 -3.8 -0.1 -5.4 -4.8 -14 -27.3 -21 -54.7 l-4 -15.8 2.4 -5.3 c3.1 -6.7 4.6 -14.3 3.8 -19.3 -0.9 -6 -5.1 -13 -9.7 -16.1 -3.7 -2.6 -4.9 -2.8 -13.2 -2.8 -8.3 0 -9.4 0.2 -14 3 -10.4 6.4 -13.7 19.7 -7.9 32.1 1.5 3.3 2.7 7.5 2.7 9.4 0 3.3 -15.3 46.8 -22.8 65 -6.2 15.1 -12.8 21.9 -20 20.5 -4.2 -0.7 -13.5 -9.1 -20.2 -18.3 -6.1 -8.3 -23.5 -35.3 -28.6 -44.5 -5 -8.9 -5.5 -11.2 -3.9 -17.2 2.9 -11 0.7 -21.2 -5.8 -27.5 -10.2 -9.9 -28.4 -7 -34.8 5.5 -4.9 9.4 -3 20.1 5.2 29.5 l3 3.4 -0.7 32.1 c-0.8 34.4 -1.7 45 -4.5 50.5 -2.2 4.3 -5.7 5 -10.6 2 -6.6 -4.1 -32.2 -38 -38.3 -50.8 -3.1 -6.6 -3.4 -7.9 -3.3 -15.6 0.2 -10.3 -1.6 -15.3 -7 -20 -16 -13.7 -43.3 -0.1 -40.5 20.1 1.1 8.2 7.4 16.5 15.6 20.8 4.5 2.3 8.4 8.4 13 20.1 6.3 16.3 10.4 34 16.4 72.4 3.1 19.5 6.6 40.2 7.7 45.9 3.8 19.2 9.1 32.1 15.8 38.5 4.2 4 4 7 -1.3 21.3 -7.5 20.4 -10.4 33.1 -11.4 50.9 -2.6 42.6 8.4 79.4 33.9 113.5 9.1 12.2 12.2 19.4 12.1 27.9 0 12.5 -5.9 21.2 -24.2 36 -18.6 15 -28.3 28 -29.6 39.6 -2.6 22 19 39.5 62.9 50.8 l13.1 3.4 -0.2 8.4 c-2.3 74.4 -17.7 139.9 -50.5 214.8 -5.5 12.5 -8.9 21.7 -9.6 25.8 -1.1 6.8 -0.2 14.6 2.2 20.5 3.9 9.3 -6.2 27.2 -22.8 40.2 -6.6 5.2 -16 11.2 -53 33.8 -18.6 11.4 -23.1 14.5 -32.3 22.1 -23.3 19.4 -30.8 41.5 -25.6 75.7 1.8 11.7 1.4 28.5 -0.8 35.8 l-1.3 4.4 -12.4 -12.9 c-112 -115.8 -185.9 -285.5 -205 -470.4 -3.6 -34.9 -4.2 -45.9 -4.8 -88.6 -0.8 -60 1.9 -100.3 10.3 -153.4 21.8 -138.7 77.4 -266.1 155.8 -357 13 -15.1 38.3 -40.7 51.1 -51.7 30.4 -26.3 58.9 -45.5 92.6 -62.4 38.7 -19.3 75.5 -30.7 119.4 -37 18.4 -2.6 56.1 -3.6 75.7 -2 51.6 4.4 95.6 16.7 143.3 40.1 51.3 25.2 91.7 55.1 137.5 101.6 52.6 53.5 95.2 115.5 130 189.5 74.3 157.6 100.2 349.5 71.4 528.4 -23.3 145.1 -83.3 276 -168.4 368 -5.6 6.1 -10.5 11.1 -10.9 11.3 -0.4 0.1 -1.5 -3.1 -2.4 -7.3z m62.3 -285 c47.5 -47.4 50 -50.3 44.6 -51.3 -1.3 -0.3 -14.8 12.6 -48.7 46.4 -25.8 25.8 -47.2 47.7 -47.5 48.6 -0.7 2.4 0.4 4 2.7 3.6 1 -0.2 23.1 -21.4 48.9 -47.3z m-27.1 -37.9 c71.4 -71.4 82.3 -82.7 81.2 -84 -0.8 -0.9 -2.1 -1.6 -3 -1.6 -2.6 0 -164.1 162.1 -164.1 164.7 0 1.8 1 2.9 3 3.2 0.3 0.1 37.6 -37 82.9 -82.3z"/>
  <path d="M1408.5 2032.4 c-41.8 -4.9 -72.1 -15.4 -87.7 -30.1 -7.8 -7.5 -10.2 -13.3 -9.6 -23.3 0.5 -6.3 1.3 -9.1 5.3 -17.5 7.8 -16.7 20.9 -49.9 27.5 -70 15.6 -47.9 23.9 -94.5 26.6 -148.8 l0.7 -13.9 3.1 0.6 c17.3 3.2 58.8 6.6 81 6.6 17.7 0 47.5 -1.6 62.6 -3.4 6.3 -0.7 11.6 -1.2 11.7 -1.1 0.2 0.1 0.7 8 1.3 17.6 4.4 75.5 18.8 133.4 51.5 206.8 9.1 20.4 10 25.2 6.5 34.4 -7.3 19.3 -38.9 34.1 -88.5 41.3 -15.6 2.3 -75.3 2.8 -92 0.8z m127.8 -101.9 c0.4 -0.8 -0.5 -4.7 -1.9 -8.7 -4.9 -14.3 -11.3 -37.7 -14.4 -52.4 -3.3 -15.9 -4.8 -18.7 -8 -14.9 -1 1.2 -1 2.8 -0.1 7.8 2.5 13.1 9.4 39.4 14.2 54.2 4.6 14.2 5.2 15.5 7.3 15.5 1.3 0 2.6 -0.7 2.9 -1.5z"/>
  <path d="M1418.5 1721.9 c-63.3 -3.8 -112.3 -19.4 -121.5 -38.5 -5.3 -10.8 2.2 -24.1 22.5 -40 18.1 -14.1 28 -28.1 29.2 -41.3 l0.6 -6.1 2.6 2.1 c11.1 8.5 28.3 18.9 31.4 18.9 2 0 5.7 -4.3 5.7 -6.6 0 -3 -1.7 -4.7 -10.5 -9.9 -31.4 -18.6 -55.5 -47.6 -67.2 -81 -6.4 -18.6 -10.2 -43.7 -8.9 -60.5 2.7 -35.6 14.6 -65 36.9 -91.6 l7.6 -9.1 9.5 -2.6 c42.3 -11.8 95.9 -18.8 155.6 -20.4 l24.7 -0.6 7.4 5.1 c42.5 29.5 66.9 75.9 67 127.2 0 16.6 -1 25 -5.1 40.6 -10.2 38.6 -33 68.9 -70 92.7 -5.8 3.8 -6.5 4.6 -6.8 7.9 -0.2 2.8 0.2 4 2 5.2 1.2 0.9 3 1.6 3.9 1.6 2 0 17.2 -9.5 24.7 -15.5 l5.7 -4.5 1.2 7 c2.4 14.3 10.7 25.9 29.3 41 25.8 20.9 30.9 34.5 17.6 47.5 -20.9 20.3 -82.2 32.8 -159.1 32.3 -12.6 0 -28.8 -0.4 -36 -0.9z m-41.7 -159.5 c0.2 -1.4 -0.6 -2.7 -2.4 -3.9 -5 -3.2 -19.6 -17.9 -23.9 -24 -2.4 -3.3 -6.4 -10.2 -8.9 -15.2 -3.5 -7.1 -5.1 -9.3 -6.6 -9.3 -3.3 0 -3.4 2.7 -0.5 9.5 5.8 13.7 18.1 29.8 30.3 39.6 7.8 6.3 11.4 7.3 12 3.3z"/>
  <path d="M1302.7 1355.8 c-2.9 -11 -3.5 -14.5 -9.7 -53.3 -6.4 -40.3 -10.1 -57.8 -15.7 -73.9 -6.3 -18.3 -12.2 -27.6 -20.7 -33.1 -7 -4.5 -9.6 -7.8 -9.6 -12.5 0 -8.3 13 -13.4 19.6 -7.7 2.5 2.2 2.6 2.7 2.5 11 -0.2 14.2 4.2 23.5 23.4 49.2 12.2 16.4 20.4 25.1 27.5 28.9 4.4 2.4 6 2.8 10.8 2.4 5.2 -0.5 5.9 -0.9 9.9 -5.2 8.4 -9.4 10.3 -21.2 10.3 -66.4 0 -33.3 -0.3 -35.5 -5 -39.7 -5.5 -4.9 -6.5 -11.6 -2.4 -16.4 2.1 -2.6 3.3 -3.1 6.9 -3.1 3.6 0 4.8 0.5 7 3.2 2.5 3 2.7 3.7 2.1 9.3 -1.9 18.1 -1.9 17.7 0.6 23.5 3.2 7.2 9.6 17.7 23.6 38.9 12.8 19.5 24.2 32.1 32.6 36.1 7.2 3.4 14.7 3.3 20.9 -0.3 9.3 -5.5 16 -16.5 24.7 -40.7 2.8 -8 8 -22.5 11.6 -32.2 7.6 -21 7.9 -24.2 3.4 -35.5 -1.6 -4.1 -3 -8.3 -3 -9.3 0 -7.9 9.6 -13.1 17 -9.3 6.7 3.5 7.6 9.4 2.9 19.3 -2 4.1 -3.1 8 -3 10.5 0 5.4 7.3 33.9 12.2 48.2 10.4 30.2 21.1 41.9 32.7 35.9 7.3 -3.8 12 -12.8 23.7 -45.6 4.2 -11.8 9 -25.3 10.7 -30 2.9 -8 3 -9 2.4 -17.8 -0.7 -8.9 -0.6 -9.6 1.5 -11.8 3.9 -4.2 14.2 -2.5 17 2.7 1.8 3.4 0.2 8.6 -3.6 11.4 -4.6 3.6 -6.3 7.6 -9.5 23.4 -4.3 20.4 -7 40 -7.6 55.6 -0.5 12.2 -0.1 18.6 3.5 50.5 4.7 41.9 4.8 44.9 2.2 48.1 l-1.9 2.4 -38.9 0.1 c-21.3 0 -46.2 0.6 -55.3 1.2 -75.8 5.6 -133.7 17.5 -166 34.3 -4.2 2.1 -8.1 3.9 -8.6 3.9 -0.6 0 -1.8 -2.8 -2.7 -6.2z m35.8 -47.2 c13.1 -3.9 35.8 -8.2 53 -10.1 15.3 -1.7 18.1 -2.7 16.9 -6 -0.7 -1.6 -1.6 -1.7 -9.8 -1.2 -27.9 1.9 -72.2 11.7 -74.1 16.4 -0.7 2 1.4 4.6 3.4 4 0.9 -0.3 5.7 -1.7 10.6 -3.1z"/>
  <path d="M723 2315.3 c-96.6 -5.6 -158.5 -22.8 -171 -47.3 -3.6 -7.1 -2.8 -13.4 3.4 -26.8 6.5 -14.2 8.6 -22.2 8.6 -33 l0 -8.2 7.3 5.7 c6.9 5.4 25.5 15.3 28.8 15.3 2 0 5.9 -4.1 5.9 -6.2 0 -3.6 -1.6 -5.1 -8.6 -8.3 -20.7 -9.5 -33.4 -23.1 -33.4 -36 0.1 -13.9 9.6 -23 49.7 -47.8 29.1 -18 35.8 -23.6 42.4 -35.2 l3.1 -5.5 3.2 2.5 c8.6 6.6 30.8 14.5 50.1 17.9 27 4.7 65.6 4.8 93 0.1 20.8 -3.5 41.9 -11.2 51.8 -18.9 2.7 -2.1 5 -3.6 5.1 -3.4 9.4 15.6 16.3 21.4 47.5 40.2 24.5 14.8 35.3 22.1 42.2 28.4 26.9 24.6 5.1 52.9 -52.2 68.1 -22.2 5.9 -49.1 9.7 -75.3 10.8 -13.6 0.5 -16.2 0.9 -17.8 2.5 -2.1 2.1 -2.3 5.7 -0.4 8.3 2 2.7 10 3 31.6 1.1 32.2 -2.9 57.1 -7.4 78 -14.2 13.7 -4.5 32.9 -14 40.6 -20.2 l6.1 -5 0.6 8.7 c0.7 11.9 2.9 19.6 9.3 33.2 4 8.6 5.4 12.7 5.4 16 0 27.9 -58.7 48.9 -157.5 56.4 -17.1 1.3 -79.9 1.8 -97.5 0.8z m153.1 -119.9 c15.8 -2.9 25.1 -5.7 37.1 -11.2 8.1 -3.6 9.8 -5.6 7.4 -8 -1.3 -1.4 -2.4 -1.1 -9.5 2.1 -11.5 5.3 -25.8 9.2 -44.2 12.2 -4.6 0.7 -6.7 2.8 -4.9 5 1.6 1.9 3.7 1.9 14.1 -0.1z"/>
  <path d="M742 2093 c-43.6 -2.8 -75.5 -14.8 -81.6 -30.6 -2.3 -6.1 -1.6 -9.9 5.1 -24.9 22.5 -50.8 33.7 -96.4 37.1 -151.2 0.7 -12.7 0 -11.9 9.9 -10.3 20.5 3.2 67.9 4.1 90.8 1.7 6.5 -0.7 12 -1.1 12.3 -0.8 0.2 0.2 0.4 3.2 0.4 6.6 0 8.9 2.7 36 5 50.5 5.2 32.2 16.8 69.3 32.9 104.9 2.8 6.1 5.3 12.6 5.6 14.4 2.3 12.1 -10 23.6 -33 31.1 -21.3 6.9 -55.5 10.4 -84.5 8.6z"/>
  <path d="M742.5 1866 c-34.8 -1.7 -63.9 -7.6 -81.1 -16.3 -7.2 -3.6 -13.4 -10.7 -13.4 -15.2 0 -5.6 3.3 -10.7 11.6 -18.2 16.5 -14.7 20.3 -18.6 23.2 -24.1 1.7 -3.1 3.3 -7.3 3.7 -9.3 l0.7 -3.6 8.4 5.7 c11.8 8.1 13.8 8.8 17.2 6.3 1.7 -1.3 2.8 -3.1 3 -5.1 0.3 -3.4 1.1 -2.7 -13.3 -12.1 -17.7 -11.6 -33.9 -31.4 -41.4 -50.6 -6.3 -16.2 -7.6 -23.5 -7.5 -43 0 -15.2 0.3 -18 2.7 -26.6 11.8 -43 46.6 -74.4 90.2 -81.4 35.7 -5.8 72.3 6.6 97.5 33.1 48 50.6 38.4 131.1 -20.2 169.7 -9.4 6.1 -10.9 8.4 -8.3 12.3 3.3 5.1 6.2 4.5 17.6 -3.1 4.5 -3 8.3 -5.5 8.4 -5.5 0.2 0 0.6 1.5 0.9 3.3 1.9 9.8 9.2 19.3 22.9 30 4.3 3.3 9.6 8.5 11.8 11.5 3.2 4.6 3.9 6.3 3.9 10.4 0 4.3 -0.4 5.2 -4 8.8 -12.2 12.2 -44.1 20.4 -89.5 23 -18.5 1.1 -22.5 1.1 -45 0z m102.4 -203.3 c2.2 -2.7 -4.5 -19.3 -12.7 -31.4 -5.2 -7.6 -15.1 -16.9 -24.4 -22.6 -12.4 -7.8 -19.8 -9.6 -19.8 -4.9 0 1.4 1.7 2.7 6.2 4.6 15.9 6.9 30.4 20.3 38.1 35.3 2.5 4.9 5.1 10.8 5.8 13.3 1.9 6.9 4.2 8.8 6.8 5.7z"/>
 </g>
</svg>